#!OML:ASF X:\für Bonn\!DataBase\2005_08_11_Bastian_Final\c3d\Bastian.ASF
:FULLY-SPECIFIED
:DEGREES
127
root -22.0032 17.5881 0.0976747 126.598 -79.584 -131.945
lowerback 5.39854 5.689 7.64609
upperback 3.00349 7.82741 -4.32609
thorax 1.78831 4.11086 -9.03087
lowerneck -12.4386 -8.99322 0.94295
upperneck -3.39876 -12.5151 9.2469
head 1.60346 -6.17967 2.10956
rclavicle 1.04362e-013 -3.49861e-014
rhumerus 59.7384 0.733512 -30.1767
rradius 23.4709
rwrist -21.9771
rhand -10.7537 -11.0424
rfingers 7.12502
rthumb 15.2578 -40.4597
lclavicle 1.04362e-013 -3.49861e-014
lhumerus -29.6881 -14.822 83.2615
lradius 14.2444
lwrist 13.8475
lhand -9.64675 -1.24026
lfingers 7.12502
lthumb 16.3238 28.0927
rfemur 0.148833 2.69936 24.968
rtibia 27.7222
rfoot -12.1799 -11.8441
rtoes -14.7759
lfemur 0.792909 4.37935 -13.3177
ltibia 25.5796
lfoot -13.0865 -2.46258
ltoes -14.9572
128
root -21.9939 17.5877 0.105486 127.346 -79.4505 -132.689
lowerback 5.39985 5.67073 7.62422
upperback 3.01977 7.80178 -4.27152
thorax 1.78764 4.09683 -8.95944
lowerneck -12.4292 -8.95069 0.868566
upperneck -3.32119 -12.4538 9.27937
head 1.63345 -6.14415 2.13459
rclavicle 1.04561e-013 2.38542e-014
rhumerus 59.7578 0.791597 -30.3064
rradius 23.9405
rwrist -22.6164
rhand -11.5465 -11.0645
rfingers 7.12502
rthumb 14.494 -40.5382
lclavicle 1.04561e-013 2.38542e-014
lhumerus -29.6981 -14.5923 83.3408
lradius 14.2604
lwrist 13.9072
lhand -9.70871 -1.30585
lfingers 7.12502
lthumb 16.2641 28.032
rfemur 0.0715609 2.78129 24.952
rtibia 27.7396
rfoot -12.1158 -11.7409
rtoes -14.8294
lfemur 0.771946 4.45568 -13.3325
ltibia 25.592
lfoot -13.0946 -2.36152
ltoes -14.7923
129
root -21.9844 17.5876 0.113251 128.07 -79.3199 -133.402
lowerback 5.39777 5.65264 7.58359
upperback 3.02762 7.77572 -4.20583
thorax 1.77547 4.0812 -8.86571
lowerneck -12.4032 -8.91113 0.794483
upperneck -3.24264 -12.3952 9.30092
head 1.66004 -6.1104 2.15673
rclavicle -4.9895e-014 -3.65764e-014
rhumerus 59.6847 0.840756 -30.4911
rradius 24.5642
rwrist -23.1315
rhand -12.3335 -11.1127
rfingers 7.12502
rthumb 13.7356 -40.6394
lclavicle -4.9895e-014 -3.65764e-014
lhumerus -29.7195 -14.4598 83.4756
lradius 14.2926
lwrist 14.0448
lhand -9.77964 -1.32832
lfingers 7.12502
lthumb 16.1958 28.0151
rfemur -0.0195011 2.81753 24.9229
rtibia 27.7576
rfoot -12.0619 -11.5792
rtoes -15.0027
lfemur 0.740265 4.52919 -13.3506
ltibia 25.6019
lfoot -13.0872 -2.26028
ltoes -14.5583
130
root -21.9748 17.5884 0.120731 128.709 -79.1936 -134.023
lowerback 5.38285 5.62951 7.55686
upperback 3.03992 7.74258 -4.15856
thorax 1.77862 4.0635 -8.79795
lowerneck -12.3921 -8.85977 0.741891
upperneck -3.15901 -12.3277 9.37117
head 1.69294 -6.07137 2.19089
rclavicle 8.64713e-014 4.6118e-014
rhumerus 59.5186 0.876954 -30.7457
rradius 25.3344
rwrist -23.5607
rhand -13.1434 -11.197
rfingers 7.12502
rthumb 12.955 -40.7748
lclavicle 8.64713e-014 4.6118e-014
lhumerus -29.7115 -14.3418 83.5808
lradius 14.3194
lwrist 14.1676
lhand -9.85006 -1.37516
lfingers 7.12502
lthumb 16.128 27.9738
rfemur -0.115439 2.89147 24.9129
rtibia 27.7699
rfoot -11.9969 -11.4916
rtoes -15.1299
lfemur 0.701083 4.53654 -13.3713
ltibia 25.6119
lfoot -13.0959 -2.12281
ltoes -14.3927
131
root -21.9652 17.5882 0.127964 129.295 -79.093 -134.612
lowerback 5.39683 5.60358 7.50424
upperback 3.04666 7.70598 -4.11689
thorax 1.75634 4.04212 -8.72547
lowerneck -12.3693 -8.80719 0.734699
upperneck -3.06377 -12.264 9.41323
head 1.72216 -6.03485 2.20867
rclavicle -9.66093e-014 3.18055e-015
rhumerus 59.6436 0.634633 -31.8902
rradius 25.478
rwrist -23.0517
rhand -13.7893 -10.9131
rfingers 7.12502
rthumb 12.3323 -40.5294
lclavicle -9.66093e-014 3.18055e-015
lhumerus -29.7135 -14.2976 83.7021
lradius 14.3664
lwrist 14.3286
lhand -9.91965 -1.42431
lfingers 7.12502
lthumb 16.061 27.93
rfemur -0.185727 2.97557 24.887
rtibia 27.7841
rfoot -11.9496 -11.401
rtoes -15.2057
lfemur 0.685699 4.62798 -13.3903
ltibia 25.6146
lfoot -13.0811 -2.07484
ltoes -14.2227
132
root -21.9564 17.5882 0.134952 129.807 -78.9968 -135.118
lowerback 5.37338 5.57007 7.45138
upperback 3.06334 7.657 -4.07453
thorax 1.76275 4.01616 -8.64731
lowerneck -12.3395 -8.75018 0.722687
upperneck -2.97565 -12.1948 9.48761
head 1.75054 -5.99565 2.23857
rclavicle -3.18055e-014 -1.11319e-014
rhumerus 59.7822 0.328417 -33.237
rradius 25.6255
rwrist -22.3897
rhand -14.4163 -10.5908
rfingers 7.12502
rthumb 11.7277 -40.2425
lclavicle -3.18055e-014 -1.11319e-014
lhumerus -29.6869 -14.2104 83.7936
lradius 14.4196
lwrist 14.428
lhand -9.94292 -1.45579
lfingers 7.12502
lthumb 16.0386 27.9004
rfemur -0.255804 3.04132 24.8687
rtibia 27.7938
rfoot -11.8987 -11.3367
rtoes -15.3058
lfemur 0.660006 4.67038 -13.4089
ltibia 25.6134
lfoot -13.0739 -2.01051
ltoes -13.9035
133
root -21.9476 17.5883 0.141632 130.31 -78.9343 -135.618
lowerback 5.3528 5.53231 7.37029
upperback 3.07686 7.60099 -4.04994
thorax 1.76163 3.98581 -8.57297
lowerneck -12.2755 -8.69659 0.792941
upperneck -2.89853 -12.1382 9.52464
head 1.76073 -5.96557 2.2438
rclavicle -3.53837e-014 -2.22639e-014
rhumerus 59.8766 0.0307797 -34.5739
rradius 25.8462
rwrist -21.8024
rhand -15.1585 -10.3303
rfingers 7.12502
rthumb 11.0119 -40.0215
lclavicle -3.53837e-014 -2.22639e-014
lhumerus -29.6852 -14.2993 83.9399
lradius 14.4972
lwrist 14.7056
lhand -10.0485 -1.50685
lfingers 7.12502
lthumb 15.937 27.8575
rfemur -0.323558 3.11973 24.8259
rtibia 27.8065
rfoot -11.876 -11.2798
rtoes -15.3871
lfemur 0.634603 4.74874 -13.4477
ltibia 25.6074
lfoot -13.0449 -1.98356
ltoes -13.7292
